<svg width="120" height="64" viewBox="0 0 120 64" fill="none" xmlns="http://www.w3.org/2000/svg">
<path fill-rule="evenodd" clip-rule="evenodd" d="M111.945 20.5277C115.984 20.5277 118.371 20.9135 119.408 22.9489C120.465 25.0197 120.102 27.7304 118.358 30.7873C118.149 31.1545 116.256 34.4039 114.323 35.4118C113.636 35.7706 112.982 35.812 112.55 35.812C111.864 35.812 110.976 35.6896 109.503 35.4853L109.502 35.4851C107.166 35.1618 103.428 34.6444 99.1195 34.5297C99.0018 35.4507 98.9426 36.3607 98.9426 37.2505C98.9426 40.1673 98.9033 41.5509 98.6613 42.5682C98.4359 43.5162 97.5921 45.7204 94.6316 45.7204H94.4939C92.4498 45.7204 90.2497 43.8429 89.6237 43.268C88.5595 42.2879 86.7726 40.3082 86.7726 38.05C86.7726 37.465 86.8084 36.6283 86.9395 35.5233C85.4922 35.8264 84.0975 36.1978 82.7662 36.6334C82.8138 37.5426 82.8956 38.3294 82.9657 39.0031C83.1635 40.9034 83.3497 42.6982 82.0526 44.1561C81.5184 44.7555 80.5486 45.4705 78.9602 45.4705C76.9613 45.4705 74.9172 44.3494 73.0501 42.2271C72.9608 42.1258 72.6645 41.7831 72.3081 41.3052C71.8006 41.4623 71.3132 41.5518 70.8199 41.5518C69.2725 41.5518 68.0873 40.7599 67.296 39.1973L67.2677 39.1416C67.2401 39.0875 67.2134 39.0326 67.1892 38.9778C66.8545 38.9921 66.5173 38.9997 66.1809 38.9997C63.9416 38.9997 61.7748 37.6557 60.0179 35.194C59.7027 35.1176 59.348 35.0244 58.9353 34.916L58.9011 34.907C58.6507 34.8403 58.3828 34.7703 58.0999 34.6968C58.1057 34.8167 58.1082 34.9382 58.1082 35.0623C58.1082 37.1003 56.5366 38.6376 54.4533 38.6376C53.0561 38.6376 51.2224 37.8727 49.6666 36.6419C48.3996 35.6398 47.4706 34.4655 46.949 33.2304C45.7229 33.2743 44.3616 33.4356 42.7574 33.7293C41.911 35.2658 40.2276 36.9719 38.0917 36.9719C37.434 36.9719 36.8756 36.7989 36.3907 36.5135C36.2997 37.4683 36.2538 38.4105 36.2538 39.3298C36.2538 41.301 34.7456 43.2967 31.8627 43.2967C30.2627 43.2967 28.4407 42.7049 26.9884 41.713C25.5461 40.7278 24.5654 39.4328 24.1481 37.9884C23.7583 38.5886 23.452 39.0706 23.2909 39.345C23.1056 39.876 22.7926 40.3488 22.3761 40.7312C21.4354 43.1296 19.787 43.5069 18.8447 43.5069C16.834 43.5069 14.6756 41.8844 13.5672 40.9169C12.5164 39.9984 11.7168 39.0825 11.1734 38.1724C9.63769 40.1369 8.40742 40.857 6.95346 40.857C5.42105 40.857 3.90616 40.1428 2.57239 38.792C1.38385 37.5891 -0.00249561 35.5081 3.37352e-06 33.6044C3.37352e-06 32.8294 0.0943226 32.3677 1.93222 28.5763C2.96635 26.4439 4.30345 23.7956 5.60217 21.3103C6.65466 19.2951 8.18874 16.4164 9.51917 14.1455C11.292 11.1199 12.3979 9.40866 14.5004 9.40866C14.9185 9.40866 15.2841 9.47873 15.6396 9.60874L15.6597 9.54289C16.0478 8.2597 16.3967 7.23906 16.6963 6.50797C17.0336 5.68718 17.9285 3.50936 20.2644 3.50936C21.3945 3.50936 22.9862 4.14167 24.9927 5.38941C26.8573 6.5485 27.9824 7.60375 28.4999 8.72063C30.8236 5.53292 31.9503 4.4574 33.7006 4.4574C33.7482 4.4574 33.7958 4.45824 33.8442 4.45993C35.2197 2.79516 36.712 1.98219 38.3821 1.98219C40.4704 1.98219 42.7231 3.51273 43.5954 4.17037C45.0226 5.24842 46.0075 6.36784 46.54 7.51596C48.3579 5.28979 49.5522 4.19654 50.9478 3.97536C51.9185 2.11726 53.2205 1.17851 54.8297 1.17851C56.5758 1.17851 58.5714 2.63814 59.9386 3.86139C62.0185 5.7254 63.1245 7.55056 63.2305 9.293C66.2677 5.72624 69.8058 3.79977 73.4274 3.79977C76.0673 3.79977 78.144 6.40498 79.658 8.6742C79.8241 8.92409 80.1354 9.40191 80.4901 9.99707C81.0502 9.02624 81.6011 8.11112 82.1277 7.27704C84.5908 3.38188 85.7543 2.31481 87.5421 2.31481C89.5461 2.31481 91.6736 3.7297 92.7628 4.57306C94.7969 6.14666 95.9186 7.77344 96.1048 9.41542C96.8426 7.97858 97.5679 6.65487 98.2523 5.5C100.368 1.93239 101.937 0 104.171 0C106.353 0 108.509 1.29501 110.406 3.74658C110.805 4.2607 112.791 6.93261 112.791 9.01695C112.791 10.4166 112.108 11.2245 110.46 13.1738C108.978 14.9255 106.726 17.5873 104.596 20.8831C107.382 20.6518 109.914 20.5277 111.945 20.5277ZM71.3791 23.2418C71.4259 20.7446 72.8748 19.4395 74.4072 19.1567C74.2612 18.9102 74.156 18.6645 74.0834 18.4214C73.2003 18.7008 72.1946 19.1212 71.2197 19.7535C68.77 21.3423 67.5598 23.5947 67.523 26.6372C67.9971 26.3451 68.5029 26.0083 68.9995 25.6393C70.6521 24.4136 71.2556 23.5373 71.3791 23.2418ZM93.1926 15.0715C93.1279 15.1505 93.0619 15.231 92.9948 15.313C91.3105 17.3653 88.9944 20.19 86.982 23.3701C88.0479 23.1548 89.1505 22.9472 90.2831 22.7462C91.1411 20.3918 92.1519 17.898 93.2953 15.3164C93.4164 15.0429 93.5382 14.7702 93.6601 14.4992C93.5118 14.6818 93.3559 14.8721 93.1926 15.0715Z" fill="#F7CB4A"/>
<path d="M49.3539 23.0266C49.5511 21.1771 49.7952 19.1296 50.0789 17.0677C49.2331 18.1341 48.3288 19.2644 47.4157 20.4057L47.4148 20.4068L47.4007 20.4244C46.6199 21.4004 45.8329 22.3841 45.071 23.3422C46.3906 23.2187 47.8141 23.1112 49.3539 23.0266Z" fill="black"/>
<path fill-rule="evenodd" clip-rule="evenodd" d="M119.408 22.9489C118.371 20.9135 115.984 20.5277 111.945 20.5277C109.914 20.5277 107.382 20.6518 104.596 20.8831C106.726 17.5873 108.978 14.9255 110.46 13.1738C112.108 11.2245 112.791 10.4166 112.791 9.01695C112.791 6.93261 110.805 4.2607 110.406 3.74658C108.509 1.29501 106.353 0 104.171 0C101.937 0 100.368 1.93238 98.2523 5.49999C97.5679 6.65486 96.8426 7.97858 96.1048 9.41541C95.9186 7.77344 94.7969 6.14665 92.7628 4.57306C91.6736 3.7297 89.5461 2.31481 87.5421 2.31481C85.7543 2.31481 84.5908 3.38188 82.1277 7.27704C81.6011 8.11112 81.0502 9.02624 80.4901 9.99707C80.1354 9.40191 79.8241 8.92409 79.658 8.6742C78.144 6.40498 76.0673 3.79976 73.4274 3.79976C69.8058 3.79976 66.2677 5.72624 63.2305 9.29301C63.1245 7.55057 62.0185 5.7254 59.9386 3.86139C58.5714 2.63814 56.5758 1.17851 54.8297 1.17851C53.2205 1.17851 51.9185 2.11726 50.9478 3.97536C49.5522 4.19654 48.3579 5.28979 46.54 7.51596C46.0075 6.36784 45.0226 5.24842 43.5954 4.17037C42.7231 3.51273 40.4704 1.98219 38.3821 1.98219C36.712 1.98219 35.2197 2.79516 33.8442 4.45993C33.7958 4.45825 33.7482 4.4574 33.7006 4.4574C31.9503 4.4574 30.8236 5.53292 28.4999 8.72063C27.9824 7.60375 26.8573 6.5485 24.9927 5.3894C22.9862 4.14167 21.3945 3.50936 20.2644 3.50936C17.9286 3.50936 17.0336 5.68715 16.6963 6.50796C16.3967 7.23904 16.0478 8.2597 15.6597 9.54289L15.6396 9.60874C15.2841 9.47873 14.9185 9.40866 14.5004 9.40866C12.3979 9.40866 11.292 11.1199 9.51917 14.1455C8.18874 16.4164 6.65466 19.2951 5.60217 21.3103C4.30345 23.7956 2.96635 26.4439 1.93222 28.5763C0.0943226 32.3677 3.37352e-06 32.8294 3.37352e-06 33.6044C-0.00249561 35.5081 1.38386 37.5891 2.57239 38.792C3.90616 40.1428 5.42105 40.857 6.95346 40.857C8.40742 40.857 9.63769 40.1369 11.1734 38.1724C11.7168 39.0825 12.5164 39.9984 13.5672 40.9169C14.6756 41.8844 16.834 43.5069 18.8447 43.5069C19.787 43.5069 21.4354 43.1296 22.3761 40.7312C22.7926 40.3488 23.1056 39.876 23.2909 39.345C23.452 39.0706 23.7583 38.5886 24.1481 37.9884C24.5654 39.4328 25.5461 40.7278 26.9884 41.713C28.4407 42.7049 30.2627 43.2967 31.8627 43.2967C34.7456 43.2967 36.2538 41.301 36.2538 39.3298C36.2538 38.4105 36.2997 37.4683 36.3907 36.5135C36.8756 36.7989 37.434 36.9719 38.0917 36.9719C40.2276 36.9719 41.911 35.2658 42.7574 33.7293C44.3616 33.4356 45.7229 33.2743 46.949 33.2304C47.4706 34.4655 48.3996 35.6398 49.6666 36.6419C51.2224 37.8727 53.0561 38.6376 54.4533 38.6376C56.5366 38.6376 58.1082 37.1003 58.1082 35.0623C58.1082 34.9382 58.1057 34.8167 58.0999 34.6968C58.3828 34.7703 58.6507 34.8403 58.9011 34.907L58.9353 34.916C59.348 35.0244 59.7027 35.1176 60.0179 35.194C61.7748 37.6557 63.9416 38.9997 66.1809 38.9997C66.5173 38.9997 66.8545 38.9921 67.1892 38.9778C67.2134 39.0326 67.2401 39.0875 67.2677 39.1416L67.296 39.1973C68.0873 40.7599 69.2725 41.5518 70.8199 41.5518C71.3132 41.5518 71.8006 41.4623 72.3081 41.3052C72.6645 41.7831 72.9608 42.1258 73.0501 42.2271C74.9172 44.3494 76.9613 45.4705 78.9602 45.4705C80.5486 45.4705 81.5184 44.7555 82.0526 44.1561C83.3497 42.6982 83.1635 40.9034 82.9657 39.0031C82.8956 38.3294 82.8138 37.5426 82.7662 36.6334C84.0975 36.1978 85.4922 35.8264 86.9395 35.5233C86.8084 36.6283 86.7726 37.465 86.7726 38.05C86.7726 40.3082 88.5595 42.2879 89.6237 43.268C90.2497 43.8429 92.4498 45.7204 94.4939 45.7204H94.6316C97.5921 45.7204 98.4359 43.5162 98.6613 42.5682C98.9033 41.5509 98.9426 40.1673 98.9426 37.2505C98.9426 36.3607 99.0018 35.4507 99.1195 34.5297C103.428 34.6444 107.166 35.1617 109.502 35.4851L109.503 35.4853C110.976 35.6896 111.864 35.812 112.55 35.812C112.982 35.812 113.636 35.7706 114.323 35.4118C116.256 34.4039 118.149 31.1545 118.358 30.7873C120.102 27.7304 120.465 25.0197 119.408 22.9489ZM74.4072 19.1567C72.8748 19.4395 71.4259 20.7446 71.3791 23.2418C71.2556 23.5373 70.6521 24.4136 68.9995 25.6393C68.5029 26.0083 67.9971 26.3451 67.523 26.6372C67.5598 23.5947 68.77 21.3423 71.2197 19.7535C72.1946 19.1212 73.2003 18.7008 74.0834 18.4214C74.156 18.6645 74.2612 18.9102 74.4072 19.1567ZM109.548 30.6794C106.603 30.2725 101.741 29.6007 96.1198 29.6805C95.6657 31.6011 95.3953 33.5858 95.3953 35.617C95.3953 40.8869 95.2561 40.8866 94.1865 40.8843L94.1166 40.8842C92.984 40.8842 89.5594 38.1167 89.5594 36.4165C89.5594 34.6141 89.905 32.4208 90.4817 30.0284C86.7776 30.4437 82.929 31.2719 79.204 32.7543L79.1986 32.8628C79.1883 33.0671 79.1781 33.2716 79.1781 33.4752C79.1781 35.2207 79.3238 36.6215 79.4365 37.705C79.6457 39.716 79.7412 40.6341 78.5805 40.6341C76.1692 40.6341 73.3898 36.6427 73.3255 35.5832C70.2477 37.1154 70.1311 36.8857 69.7325 36.1002L69.7023 36.0408C69.5037 35.6508 69.5863 34.7348 69.8634 33.6981C68.6415 33.9894 67.291 34.1633 65.8003 34.1633C64.2429 34.1633 62.6362 32.6353 61.4368 30.4479C61.4042 30.5433 61.3483 30.6016 61.2599 30.6016C60.9406 30.6016 60.2703 30.4254 59.3076 30.1723C58.0253 29.8352 56.224 29.3617 54.0426 28.9866C54.1379 30.228 54.2756 31.1134 54.3853 31.8184C54.4852 32.4606 54.5618 32.9532 54.5618 33.4288C54.5618 34.7981 49.2476 32.1541 49.2476 29.2888C49.2476 29.098 49.2593 28.8076 49.2793 28.4438C48.6133 28.4075 47.9339 28.3822 47.2319 28.3822C44.9633 28.3822 42.6105 28.7604 40.4387 29.2129C40.0823 29.7228 39.8152 30.1406 39.6633 30.4378C39.1984 31.3462 38.3421 32.1355 37.7119 32.1355C37.4056 32.1355 36.778 31.168 36.2129 30.1753C35.1379 30.4218 34.1989 30.6159 33.4535 30.6944C32.987 32.9577 32.7074 35.3046 32.7074 37.6971C32.7074 39.4573 26.97 38.0196 26.7163 34.961C26.7163 34.1016 27.707 28.6084 29.2536 22.4508C28.1883 24.0477 27.1101 25.6584 26.0728 27.2079C22.5369 32.4898 19.4773 37.0601 19.0333 37.9478L19.0299 37.9563C19.0282 37.9603 19.0265 37.9645 19.025 37.9689C18.9983 38.0255 18.9782 38.0719 18.9782 38.0905C18.9782 38.1471 18.9532 38.1884 18.914 38.2214C18.7729 38.505 18.6227 38.6705 18.4641 38.6705C17.0661 38.6705 13.0981 35.498 13.0981 33.6931C13.0981 31.5268 14.1431 25.8622 15.4276 20.1393L14.1765 24.4887C14.1765 24.4887 8.45666 36.0205 6.57286 36.0205C4.68906 36.0205 2.78606 32.989 2.78606 31.9759C2.78773 31.1655 12.9679 10.978 14.1206 10.978C14.2861 10.978 14.8557 11.3817 15.4875 11.8294C16.0919 12.2578 16.7533 12.7265 17.1721 12.9206C18.3389 8.45386 19.4214 5.07873 19.8838 5.07873C20.8587 5.07873 25.294 7.64259 25.294 8.63537C25.294 9.03324 24.5396 11.2484 23.636 13.9016C22.2868 17.8631 20.605 22.8016 20.605 24.1257C20.605 24.1687 20.6041 24.2236 20.6033 24.2751C24.325 18.3378 32.1765 6.02762 33.32 6.02762C33.7523 6.02762 34.3216 6.13061 34.9108 6.30621C35.9266 4.59754 36.9708 3.55157 38.0024 3.55157C39.5707 3.55157 43.4635 6.23108 43.4635 7.93215C43.4635 8.36143 42.7775 9.52308 41.7519 11.2596C40.0064 14.2154 37.2772 18.8367 35.2731 24.3469C35.8674 24.1865 36.5835 24.0185 37.419 23.8479C41.5371 17.2952 49.8001 5.50253 51.1205 5.50253C51.5738 5.50253 52.0654 5.71949 52.5461 6.06055C53.1354 4.04712 53.7764 2.74789 54.45 2.74789C55.4824 2.74789 59.6932 6.02762 59.6932 7.93552C59.6932 8.53491 58.9137 10.4511 57.928 12.874C56.766 15.7303 55.3174 19.2909 54.5217 22.2288C55.5392 22.2085 56.585 22.195 57.6784 22.195C58.069 22.195 58.892 23.5195 59.6707 25.1159C59.5772 24.4617 59.5271 23.804 59.5271 23.1557C59.5271 17.9402 65.2887 5.36914 73.0476 5.36914C74.9581 5.36914 78.825 11.9928 78.825 13.2042C78.825 14.4156 77.4412 15.9344 76.8419 15.9344C76.6109 15.9344 76.7895 15.5025 77.0093 14.9712C77.3604 14.1225 77.8164 13.0202 76.8745 13.0202C73.4215 13.0202 63.9758 15.3865 63.9758 25.1446C63.9758 27.8765 64.8505 29.2492 65.6877 29.2492C66.524 29.2492 74.1644 25.1539 74.1644 21.7324C74.1644 19.7569 75.5215 20.8248 76.6691 22.5504C80.4651 13.2245 86.2467 3.88503 87.1623 3.88503C88.7223 3.88503 92.5859 6.6861 92.5859 8.27067C92.5859 8.699 91.607 9.89309 90.1783 11.6359C87.4001 15.0249 82.9209 20.4888 80.6312 26.4312C84.2085 25.4494 88.2415 24.6212 92.2745 23.9585C95.9336 13.2515 102.178 1.56853 103.791 1.56853C106.499 1.56853 109.245 6.34589 109.245 7.38341C109.245 7.60094 108.636 8.32132 107.673 9.45994C105.442 12.0994 101.311 16.9865 98.4618 23.067C107.738 21.9156 115.687 21.7501 116.214 22.7834C117.456 25.2181 113.601 30.3534 112.491 30.9325C112.259 31.054 111.208 30.9088 109.548 30.6794ZM92.9948 15.313L93.1926 15.0715C93.3559 14.8721 93.5118 14.6818 93.6601 14.4992C93.5382 14.7702 93.4164 15.0429 93.2953 15.3164C92.1519 17.898 91.1411 20.3918 90.2831 22.7462C89.1505 22.9472 88.0479 23.1548 86.982 23.3701C88.9944 20.19 91.3105 17.3653 92.9948 15.313Z" fill="black"/>
<path fill-rule="evenodd" clip-rule="evenodd" d="M20.0316 63.9998H15.3818V63.5239C15.5978 63.5072 15.8524 63.4672 16.144 63.4047C16.4364 63.3414 16.5826 63.263 16.5826 63.1697C16.5826 63.1372 16.5793 63.1005 16.5736 63.0596C16.5678 63.0188 16.5506 62.9646 16.5218 62.8946L15.7941 61.1009H12.847C12.7789 61.2676 12.7041 61.4627 12.622 61.6869C12.5407 61.9102 12.47 62.1103 12.4101 62.2845C12.3345 62.5129 12.2893 62.6771 12.2754 62.7788C12.2614 62.8804 12.2548 62.9521 12.2548 62.9921C12.2548 63.123 12.3518 63.2338 12.5464 63.3255C12.7403 63.4172 13.0639 63.4831 13.5165 63.5239V63.9998H10.0158V63.5239C10.148 63.5156 10.2975 63.4947 10.4642 63.4597C10.6302 63.4256 10.7616 63.3772 10.8577 63.3164C11.022 63.2188 11.1616 63.0988 11.2758 62.9563C11.3899 62.8138 11.4852 62.6446 11.5616 62.4495C12.0265 61.306 12.493 60.1599 12.9604 59.0122C13.4269 57.8644 13.9436 56.5992 14.5095 55.2155H15.7128C16.4989 57.1776 17.1141 58.7279 17.5592 59.8665C18.0044 61.0067 18.3839 61.9511 18.696 62.6996C18.7486 62.8213 18.8143 62.933 18.8948 63.0321C18.9753 63.1322 19.0894 63.2263 19.2381 63.3164C19.3498 63.3814 19.4804 63.4306 19.6291 63.4631C19.7769 63.4956 19.9116 63.5156 20.0316 63.5239V63.9998ZM15.5461 60.4958L14.3107 57.3643L13.0935 60.4958H15.5461Z" fill="black"/>
<path d="M32.5513 61.1836L32.3675 63.9998H23.7875V63.5172C23.9407 63.5045 24.12 63.4851 24.3261 63.4581C24.5314 63.431 24.6676 63.4057 24.733 63.3811C24.8908 63.3228 25.0001 63.2434 25.0611 63.1394C25.122 63.0363 25.1534 62.9036 25.1534 62.7439V56.5468C25.1534 56.398 25.1292 56.2746 25.0808 56.1782C25.0324 56.081 24.9168 55.9931 24.733 55.9154C24.5968 55.8571 24.4337 55.8114 24.2437 55.7759C24.0537 55.7413 23.9013 55.7151 23.7875 55.6982V55.2155H28.9016V55.6982C28.7609 55.7108 28.596 55.7286 28.406 55.7506C28.2151 55.7742 28.0502 55.8064 27.9104 55.8469C27.7392 55.901 27.6253 55.9847 27.5689 56.0971C27.5115 56.2112 27.4837 56.3405 27.4837 56.4842V62.2595C27.4837 62.5326 27.5034 62.7481 27.5429 62.9036C27.5823 63.0617 27.6585 63.1758 27.7723 63.2501C27.8862 63.3296 28.0448 63.3803 28.2482 63.4023C28.4517 63.4251 28.7331 63.4369 29.0917 63.4369C29.4421 63.4369 29.7818 63.4175 30.1125 63.3778C30.4423 63.3389 30.6808 63.2527 30.8251 63.1208C31.0482 62.9104 31.2768 62.6137 31.5107 62.2325C31.7446 61.8505 31.932 61.5014 32.0718 61.1836H32.5513Z" fill="black"/>
<path d="M45.071 61.1836L44.8873 63.9998H36.3072V63.5172C36.4605 63.5045 36.6397 63.4851 36.8459 63.4581C37.0511 63.431 37.1873 63.4057 37.2528 63.3811C37.4105 63.3228 37.5199 63.2434 37.5808 63.1394C37.6418 63.0363 37.6731 62.9036 37.6731 62.7439V56.5468C37.6731 56.398 37.6489 56.2746 37.6005 56.1782C37.5521 56.081 37.4365 55.9931 37.2528 55.9154C37.1165 55.8571 36.9534 55.8114 36.7634 55.7759C36.5734 55.7413 36.421 55.7151 36.3072 55.6982V55.2155H41.4214V55.6982C41.2806 55.7108 41.1157 55.7286 40.9257 55.7506C40.7348 55.7742 40.5699 55.8064 40.4301 55.8469C40.2589 55.901 40.1451 55.9847 40.0886 56.0971C40.0312 56.2112 40.0034 56.3405 40.0034 56.4842V62.2595C40.0034 62.5326 40.0232 62.7481 40.0626 62.9036C40.102 63.0617 40.1782 63.1758 40.2921 63.2501C40.4059 63.3296 40.5645 63.3803 40.768 63.4023C40.9714 63.4251 41.2529 63.4369 41.6114 63.4369C41.9618 63.4369 42.3015 63.4175 42.6322 63.3778C42.9621 63.3389 43.2005 63.2527 43.3448 63.1208C43.5679 62.9104 43.7965 62.6137 44.0304 62.2325C44.2644 61.8505 44.4517 61.5014 44.5915 61.1836H45.071Z" fill="black"/>
<path d="M53.8348 63.9998H48.8269V63.5172C48.9416 63.5088 49.1102 63.4961 49.3326 63.48C49.555 63.4631 49.7088 63.4386 49.7939 63.4057C49.9512 63.344 50.058 63.262 50.1154 63.1614C50.1727 63.06 50.2014 62.9306 50.2014 62.7743V56.5468C50.2014 56.4065 50.1736 56.2822 50.1189 56.1749C50.0633 56.0675 49.9555 55.9813 49.7939 55.9154C49.6923 55.874 49.542 55.8317 49.3421 55.7878C49.1432 55.7446 48.9711 55.7151 48.8269 55.6982V55.2155H53.8348V55.6982C53.708 55.7108 53.5481 55.7286 53.3578 55.7506C53.1667 55.7742 53.0051 55.8064 52.8739 55.8469C52.7088 55.901 52.5985 55.9847 52.5429 56.0971C52.4881 56.2112 52.4603 56.3397 52.4603 56.4842V62.7058C52.4603 62.8546 52.489 62.9814 52.5463 63.087C52.6037 63.1918 52.7123 63.278 52.8739 63.344C52.9634 63.3811 53.1102 63.4175 53.3161 63.4521C53.522 63.4876 53.6949 63.5088 53.8348 63.5172V63.9998Z" fill="black"/>
<path fill-rule="evenodd" clip-rule="evenodd" d="M67.6065 63.9998H62.9567V63.5239C63.1728 63.5072 63.4274 63.4672 63.719 63.4047C64.0114 63.3414 64.1576 63.263 64.1576 63.1697C64.1576 63.1372 64.1543 63.1005 64.1486 63.0596C64.1428 63.0188 64.1256 62.9646 64.0968 62.8946L63.3691 61.1009H60.422C60.3538 61.2676 60.2791 61.4627 60.1969 61.6869C60.1156 61.9102 60.045 62.1103 59.985 62.2845C59.9095 62.5129 59.8643 62.6771 59.8503 62.7788C59.8364 62.8804 59.8298 62.9521 59.8298 62.9921C59.8298 63.123 59.9267 63.2338 60.1214 63.3255C60.3152 63.4172 60.6388 63.4831 61.0914 63.5239V63.9998H57.5907V63.5239C57.723 63.5156 57.8725 63.4947 58.0392 63.4597C58.2051 63.4256 58.3365 63.3772 58.4326 63.3164C58.5969 63.2188 58.7365 63.0988 58.8507 62.9563C58.9649 62.8138 59.0602 62.6446 59.1366 62.4495C59.6014 61.306 60.068 60.1599 60.5353 59.0122C61.0019 57.8644 61.5185 56.5992 62.0844 55.2155H63.2877C64.0738 57.1776 64.689 58.7279 65.1342 59.8665C65.5794 61.0067 65.9588 61.9511 66.271 62.6996C66.3235 62.8213 66.3892 62.933 66.4697 63.0321C66.5502 63.1322 66.6644 63.2263 66.8131 63.3164C66.9248 63.3814 67.0554 63.4306 67.204 63.4631C67.3519 63.4956 67.4866 63.5156 67.6065 63.5239V63.9998ZM63.121 60.4958L61.8857 57.3643L60.6684 60.4958H63.121Z" fill="black"/>
<path d="M81.3782 55.6946C81.266 55.7081 81.1063 55.7299 80.8983 55.7627C80.6903 55.7955 80.5036 55.8762 80.3358 56.0031C80.1867 56.1132 80.0811 56.304 80.0205 56.5721C79.9583 56.8411 79.928 57.2362 79.928 57.7573V63.9998H78.8593L73.557 57.2462V61.3472C73.557 61.8557 73.5906 62.2423 73.6561 62.5062C73.7225 62.7718 73.8289 62.9652 73.9771 63.0887C74.0852 63.1786 74.2572 63.2593 74.493 63.3283C74.7289 63.3989 74.9164 63.4459 75.0564 63.4703V63.9502H71.3976V63.4703C71.554 63.4577 71.7326 63.4283 71.9348 63.3812C72.1363 63.3341 72.3058 63.261 72.4417 63.1627C72.5973 63.0433 72.7046 62.8635 72.7627 62.6239C72.82 62.3835 72.8495 61.9809 72.8495 61.4144V57.2773C72.8495 57.0723 72.8184 56.8781 72.7562 56.6949C72.6948 56.5133 72.5973 56.3561 72.4655 56.225C72.3254 56.0855 72.1649 55.9754 71.9831 55.8947C71.8005 55.8157 71.5942 55.7526 71.3624 55.7081V55.2155H74.5659L79.2188 61.1219V57.8178C79.2188 57.2925 79.1852 56.9025 79.1164 56.6461C79.0493 56.3889 78.9404 56.1998 78.7938 56.0762C78.6767 55.9821 78.5056 55.9014 78.2771 55.8333C78.0494 55.7661 77.8652 55.719 77.726 55.6946V55.2155H81.3782V55.6946Z" fill="black"/>
<path d="M89.5592 64C88.9521 64 88.3833 63.9018 87.855 63.7045C87.3252 63.5073 86.8647 63.2214 86.472 62.8469C86.0871 62.4795 85.7836 62.0251 85.5613 61.4853C85.3398 60.9447 85.2283 60.3497 85.2283 59.7013C85.2283 59.0576 85.3406 58.4603 85.5645 57.9125C85.7884 57.3631 86.1023 56.8887 86.507 56.4862C86.9038 56.0925 87.3802 55.7867 87.9363 55.5695C88.4924 55.3531 89.0876 55.2445 89.7225 55.2445C90.1806 55.2445 90.5997 55.3012 90.9766 55.4138C91.3542 55.528 91.6729 55.6541 91.9334 55.7947L92.2959 55.4729H92.8034L92.856 58.5018H92.3421C92.0505 57.5763 91.7008 56.8959 91.2936 56.4631C90.8849 56.0295 90.3878 55.8114 89.8014 55.8114C89.0708 55.8114 88.5147 56.1349 88.1347 56.7817C87.7531 57.4286 87.5627 58.3349 87.5627 59.5024C87.5627 60.1621 87.628 60.7259 87.7579 61.1922C87.8885 61.6594 88.0582 62.0355 88.2685 62.3198C88.494 62.6177 88.7601 62.8349 89.0668 62.9738C89.3744 63.1128 89.7138 63.1815 90.0866 63.1815C90.6316 63.1815 91.1152 63.0337 91.5406 62.7367C91.9661 62.4412 92.3541 61.9924 92.7038 61.3919L93.2058 61.6961C93.0384 62.0395 92.848 62.3462 92.6337 62.6177C92.4202 62.8876 92.1732 63.1208 91.8936 63.3164C91.5852 63.5304 91.2458 63.6981 90.8746 63.8187C90.5033 63.9401 90.0643 64 89.5592 64Z" fill="black"/>
<path d="M105.773 57.4556H105.282C105.158 57.1225 104.942 56.7861 104.637 56.4446C104.331 56.1031 104.029 55.9019 103.727 55.8402C103.598 55.8115 103.418 55.7937 103.188 55.787C102.958 55.7819 102.768 55.7785 102.617 55.7785H101.287V59.1639H102.229C102.466 59.1639 102.681 59.1377 102.875 59.0845C103.069 59.0304 103.245 58.9272 103.404 58.7751C103.503 58.6796 103.603 58.513 103.704 58.273C103.806 58.0346 103.871 57.825 103.902 57.6483H104.393V61.3127H103.902C103.876 61.1394 103.809 60.9221 103.704 60.6601C103.599 60.3972 103.499 60.218 103.404 60.1183C103.262 59.9703 103.095 59.868 102.901 59.8114C102.707 59.7565 102.484 59.7277 102.229 59.7277H101.287V62.2602C101.287 62.5248 101.308 62.7336 101.348 62.8891C101.389 63.043 101.465 63.1622 101.578 63.245C101.685 63.3228 101.833 63.3743 102.019 63.3988C102.207 63.4242 102.462 63.4369 102.784 63.4369C102.935 63.4369 103.116 63.4343 103.327 63.4301C103.538 63.4259 103.723 63.414 103.881 63.3929C104.063 63.3726 104.231 63.3422 104.389 63.2999C104.545 63.2594 104.662 63.1993 104.74 63.1207C104.947 62.9187 105.179 62.6102 105.437 62.1951C105.695 61.7801 105.865 61.4699 105.947 61.2636H106.418L106.244 63.9998H97.6539V63.5172C97.7737 63.5087 97.9376 63.4927 98.1447 63.4673C98.3509 63.4428 98.4963 63.4141 98.5835 63.3811C98.7457 63.3151 98.8558 63.2315 98.9122 63.13C98.9678 63.0294 98.9968 62.9001 98.9968 62.7437V56.546C98.9968 56.3973 98.9722 56.2747 98.9246 56.1775C98.8779 56.0803 98.7642 55.9932 98.5835 55.9146C98.4707 55.8647 98.3139 55.8191 98.1121 55.7785C97.9094 55.7371 97.757 55.7109 97.6539 55.6974V55.2155H105.773V57.4556Z" fill="black"/>
</svg>
